<?xml version="1.0" encoding="utf-8"?>
<!-- Generator: Adobe Illustrator 21.0.0, SVG Export Plug-In . SVG Version: 6.00 Build 0)  -->
<svg version="1.1" xmlns="http://www.w3.org/2000/svg" xmlns:xlink="http://www.w3.org/1999/xlink" x="0px" y="0px"
	 viewBox="0 0 300 58.6" style="enable-background:new 0 0 300 58.6;" xml:space="preserve">
<style type="text/css">
	.st0{display:none;}
	.st1{display:inline;fill:#0B263D;}
	.st2{display:inline;fill:#40B7FC;}
	.st3{display:inline;fill:none;stroke:#000000;stroke-miterlimit:10;}
	.st4{display:inline;fill:#FEDD64;}
	.st5{fill:#E03F57;}
	.st6{display:inline;fill:#FCDD64;}
	.st7{display:inline;fill:#41B7FC;}
</style>
<g id="Layer_4" class="st0">
	<rect y="-108.1" class="st1" width="300" height="300"/>
</g>
<g id="text" class="st0">
	<path class="st2" d="M42.4,100.7c-0.2-2-1-3.8-2.4-5.1c-1.5-1.5-3.5-2.4-5.8-2.4h-6.1c-4.3,0-7.8,3.3-8.2,7.5h0v21.4h7v-14.7v-5.1
		c0-0.9,0.7-1.6,1.6-1.6h5.4c0.9,0,1.6,0.7,1.6,1.6v5.1v14.7h7L42.4,100.7L42.4,100.7z"/>
	<path class="st2" d="M159.7,100.7c-0.2-2-1-3.8-2.4-5.1c-1.5-1.5-3.5-2.4-5.8-2.4h-6.1c-4.3,0-7.8,3.3-8.2,7.5h0v21.4h7v-14.7v-5.1
		c0-0.9,0.7-1.6,1.6-1.6h5.4c0.9,0,1.6,0.7,1.6,1.6v5.1v14.7h7L159.7,100.7L159.7,100.7z"/>
	<path class="st2" d="M59.3,104.3h-2.2v6.8h2.2v1.8c0,1.5-1.2,2.8-2.8,2.8h-3.1c-1.5,0-2.8-1.2-2.8-2.8v-10c0-1.5,1.2-2.8,2.8-2.8
		h3.1c1.5,0,2.8,1.9,2.8,1.9h7C66,97.1,62,93.2,57,93.2h-3.6c-5.1,0-9.3,4.2-9.3,9.3v10.3c0,5.1,4.2,9.3,9.3,9.3H57
		c5.1,0,9.3-4.2,9.3-9.3v-1.7v-6.8H59.3z"/>
	<path class="st3" d="M66.3,102v0.5C66.3,102.3,66.3,102.2,66.3,102L66.3,102z"/>
	<path class="st2" d="M90.1,93.2V115c0,3.9-3.2,7.1-7.1,7.1h-8.1c-3.9,0-7.1-3.2-7.1-7.1V93.2h6.7v19.5c0,1.7,1.4,3.1,3.1,3.1h3
		c1.7,0,3.1-1.4,3.1-3.1V93.2H90.1z"/>
	<polygon class="st2" points="111.8,93.2 104.7,93.2 101.8,101.1 98.9,93.2 91.8,93.2 98.8,108.6 98.8,108.6 98.8,122.1 
		104.8,122.1 104.8,108.6 104.8,108.6 	"/>
	<path class="st2" d="M261,102.4v2h15.8v6.3H261v2c0,1.5,1.2,2.7,2.7,2.7h13.1v6.7H263c-4.8,0-8.6-3.8-8.6-8.6v-11.7
		c0-4.8,3.8-8.6,8.6-8.6h13.8v6.5h-13.1C262.3,99.7,261,100.9,261,102.4z"/>
	<path class="st2" d="M206.5,102.4v2h15.8v6.3h-15.8v2c0,1.5,1.2,2.7,2.7,2.7h13.1v6.7h-13.8c-4.8,0-8.6-3.8-8.6-8.6v-11.7
		c0-4.8,3.8-8.6,8.6-8.6h13.8v6.5h-13.1C207.7,99.7,206.5,100.9,206.5,102.4z"/>
	<path class="st2" d="M120,102.4v2h15.8v6.3H120v2c0,1.5,1.2,2.7,2.7,2.7h13.1v6.7H122c-4.8,0-8.6-3.8-8.6-8.6v-11.7
		c0-4.8,3.8-8.6,8.6-8.6h13.8v6.5h-13.1C121.2,99.7,120,100.9,120,102.4z"/>
	<path class="st2" d="M189.1,93.2c-2.2,0-4.1,0.8-5.6,2.2c-1.5-1.3-3.5-2.2-5.7-2.2c-4.5,0-8.2,3.6-8.5,8h0v20.8h6.9v-12V102
		c0-1.2,1-2.2,2.2-2.2s2.2,1,2.2,2.2v7.8v12.4h6.9v-12V102c0-1.2,1-2.2,2.2-2.2c0.9,0,1.7,0.6,2,1.4h-0.2v20.9h6.9v-20.9
		C198.3,96.8,193.7,93.2,189.1,93.2z"/>
	<path class="st2" d="M243.5,93.2c-2.2,0-4.1,0.8-5.6,2.2c-1.5-1.3-3.5-2.2-5.7-2.2c-4.5,0-8.2,3.6-8.5,8h0v20.8h6.9v-12V102
		c0-1.2,1-2.2,2.2-2.2s2.2,1,2.2,2.2v7.8v12.4h6.9v-12V102c0-1.2,1-2.2,2.2-2.2c0.9,0,1.7,0.6,2,1.4h-0.2v20.9h6.9v-20.9
		C252.7,96.8,248,93.2,243.5,93.2z"/>
	<rect x="115.7" y="138.1" class="st4" width="5.4" height="21.2"/>
	<polygon class="st4" points="136.8,138.1 122,138.1 122,142.9 126.8,142.9 126.8,159.2 131.9,159.2 131.9,142.9 136.8,142.9 	"/>
	<path class="st4" d="M169,138.1h-4.2c-3.3,0-5.9,2.6-5.9,5.9v9.4c0,3.3,2.6,5.9,5.9,5.9h4.2c3.3,0,5.9-2.6,5.9-5.9V144
		C174.9,140.7,172.3,138.1,169,138.1z M170,152c0,1.3-1.1,2.4-2.4,2.4h-1.9c-1.3,0-2.4-1.1-2.4-2.4v-6.5c0-1.3,1.1-2.4,2.4-2.4h1.9
		c1.3,0,2.4,1.1,2.4,2.4V152z"/>
	<path class="st4" d="M192.4,138.1v15.3c0,3.3-2.6,5.9-5.9,5.9h-4.6c-3.3,0-5.9-2.6-5.9-5.9v-15.3h5.7v14c0,1.4,1.1,2.5,2.5,2.5
		c1.4,0,2.5-1.1,2.5-2.5v-14H192.4z"/>
	<path class="st4" d="M209.9,144.3c0-3.4-2.8-6.2-6.2-6.2h-5.1h-4.8v8.5v4.6v8.1h4.8v-8.1h3.3c1.6,0.4,2.8,1.9,2.8,3.7v4.4h5.2v-6.7
		c0-1.4-0.5-2.8-1.3-3.8c0.8-1.1,1.3-2.4,1.3-3.9V144.3z M198.5,146.6v-3.9h3.7c0.5,0,1,0.2,1.4,0.6c0.4,0.4,0.6,0.8,0.6,1.4
		c0,1.1-0.9,2-2,2H198.5z"/>
	<path class="st4" d="M231.1,159.2c-1.5,0-2.9-0.6-3.9-1.5c-1.1,0.9-2.4,1.5-3.9,1.5c-3.2,0-5.8-2.5-5.9-5.6h0v-15.6h4.8v9.4v5.7
		c0,0.8,0.7,1.5,1.5,1.5s1.5-0.7,1.5-1.5v-5.4v-1.5h4.8v1.2v5.7c0,0.8,0.7,1.5,1.5,1.5c0.7,0,1.2-0.4,1.4-1h-0.1v-15.6h4.9v15.6
		C237.5,156.8,234.2,159.2,231.1,159.2z"/>
	<polygon class="st4" points="255.7,159.1 250.7,159.1 247.5,147.7 244.3,159.1 239.3,159.1 245.2,138.1 249.8,138.1 	"/>
	<polygon class="st4" points="157.8,138.2 152.6,138.2 150.5,144 148.4,138.2 143.2,138.2 148.3,149.4 148.3,149.4 148.3,159.2 
		152.7,159.2 152.7,149.4 152.7,149.4 	"/>
	<polygon class="st4" points="267.7,138.2 262.5,138.2 260.4,144 258.3,138.2 253.1,138.2 258.2,149.4 258.2,149.4 258.2,159.2 
		262.5,159.2 262.5,149.4 262.5,149.4 	"/>
	<path class="st4" d="M83.5,138.2c-1.6,0-3,0.6-4.1,1.6c-1.1-1-2.5-1.6-4.1-1.6c-3.3,0-6,2.6-6.1,5.8h0v15.1h5v-8.7v-5.8
		c0-0.9,0.7-1.6,1.6-1.6s1.6,0.7,1.6,1.6v5.6v9h5v-8.7v-5.8c0-0.9,0.7-1.6,1.6-1.6c0.7,0,1.3,0.4,1.5,1h-0.1v15.1h5V144
		C90.1,140.8,86.8,138.2,83.5,138.2z"/>
	<path class="st4" d="M43.6,138.2c-1.6,0-3,0.6-4.1,1.6c-1.1-1-2.5-1.6-4.1-1.6c-3.3,0-6,2.6-6.1,5.8h0v15.1h5v-8.7v-5.8
		c0-0.9,0.7-1.6,1.6-1.6s1.6,0.7,1.6,1.6v5.6v9h5v-8.7v-5.8c0-0.9,0.7-1.6,1.6-1.6c0.7,0,1.3,0.4,1.5,1h-0.1v15.1h5V144
		C50.2,140.8,46.9,138.2,43.6,138.2z"/>
	<path class="st4" d="M56.2,144.8v1.5h11.5v4.6H56.2v1.5c0,1.1,0.9,2,2,2h9.5v4.9H57.7c-3.5,0-6.3-2.8-6.3-6.3v-8.5
		c0-3.5,2.8-6.3,6.3-6.3h10.1v4.7h-9.5C57.1,142.8,56.2,143.7,56.2,144.8z"/>
	<path class="st4" d="M96.6,144.8v1.5h11.5v4.6H96.6v1.5c0,1.1,0.9,2,2,2h9.5v4.9H98c-3.5,0-6.3-2.8-6.3-6.3v-8.5
		c0-3.5,2.8-6.3,6.3-6.3h10.1v4.7h-9.5C97.5,142.8,96.6,143.7,96.6,144.8z"/>
</g>
<g id="icon" class="st0">
	<polyline class="st4" points="167.9,-65.6 174.1,-66.6 185.8,-34.5 	"/>
	<polygon class="st4" points="123.6,76.1 129.8,75.1 132.6,44.7 	"/>
	<path class="st4" d="M185-37.7l5.9-0.6l-23-27.3l-14.9,31.3l5.8-0.6L169,31c0,0,0,0-0.1,0c-2.8,0.3-7-15.9-9-24.3l-1.5-4.9
		l-2.8-8.9C146.4-46,119.4-40,119.4-40s-20.6,1.9-22,21.2c2.5,17.3,7.4,54.1,9,66.3l-5.9,0.6l23.2,28l14.8-32l-5.8,0.6l-10.3-65.9
		h0.1c0.3,0,0.6,0.1,0.9,0.4c1.8,5.5,5.6,17.2,8.6,26.2c0.3,0.9,0.6,1.8,0.9,2.7c1.6,5,2.9,8.7,3,9c0,0,0,0,0,0
		c9.2,38.6,36.1,32.7,36.1,32.7s20.6-1.9,22-21.2C191.4,11.3,186.6-25.6,185-37.7z"/>
	<path class="st2" d="M191.2-38.7l5.9-0.6l-23-27.3l-14.9,31.3l5.8-0.6L175.2,30c0,0,0,0-0.1,0c-2.8,0.3-7-15.9-9-24.3l-1.5-4.9
		l-2.8-8.9C152.6-47,125.6-41,125.6-41s-20.6,1.9-22,21.2c2.5,17.3,7.4,54.1,9,66.3l-5.9,0.6l23.2,28l14.8-32l-5.8,0.6l-10.3-65.9
		h0.1c0.3,0,0.6,0.1,0.9,0.4c1.8,5.5,5.6,17.2,8.6,26.2c0.3,0.9,0.6,1.8,0.9,2.7c1.6,5,2.9,8.7,3,9c0,0,0,0,0,0
		c9.2,38.6,36.1,32.7,36.1,32.7s20.6-1.9,22-21.2C197.6,10.3,192.8-26.6,191.2-38.7z"/>
	<path class="st2" d="M123.6,77.1"/>
	<path class="st2" d="M123.6,77.1"/>
	<path class="st4" d="M123.6,77.1"/>
</g>
<g id="browse_text">
	<rect x="111.2" y="17.1" class="st5" width="6.3" height="25"/>
	<polygon class="st5" points="136.1,17.1 118.6,17.1 118.6,22.8 124.3,22.8 124.3,42 130.3,42 130.3,22.8 136.1,22.8 	"/>
	<path class="st5" d="M174.1,17.1h-4.9c-3.8,0-7,3.1-7,7v11.1c0,3.8,3.1,7,7,7h4.9c3.8,0,7-3.1,7-7V24
		C181,20.2,177.9,17.1,174.1,17.1z M175.3,33.4c0,1.6-1.3,2.8-2.8,2.8h-2.3c-1.6,0-2.8-1.3-2.8-2.8v-7.7c0-1.6,1.3-2.8,2.8-2.8h2.3
		c1.6,0,2.8,1.3,2.8,2.8V33.4z"/>
	<path class="st5" d="M201.6,17.1v18c0,3.8-3.1,7-7,7h-5.4c-3.8,0-7-3.1-7-7v-18h6.8v16.5c0,1.6,1.3,2.9,2.9,2.9
		c1.6,0,2.9-1.3,2.9-2.9V17.1H201.6z"/>
	<path class="st5" d="M222.2,24.4c0-4.1-3.3-7.3-7.3-7.3h-6h-5.6v10v5.4V42h5.6v-9.6h3.9c1.9,0.5,3.3,2.3,3.3,4.3V42h6.2v-7.9
		c0-1.7-0.6-3.3-1.6-4.5c1-1.2,1.6-2.8,1.6-4.6V24.4z M208.9,27.1v-4.6h4.4c0.6,0,1.2,0.3,1.6,0.7c0.4,0.4,0.7,1,0.7,1.6
		c0,1.3-1,2.3-2.3,2.3H208.9z"/>
	<path class="st5" d="M247.2,42c-1.8,0-3.4-0.7-4.7-1.8c-1.2,1.1-2.9,1.8-4.7,1.8c-3.7,0-6.8-2.9-7-6.6h0V17.1h5.7v11.1v6.7
		c0,1,0.8,1.8,1.8,1.8c1,0,1.8-0.8,1.8-1.8v-6.4v-1.7h5.7v1.4v6.7c0,1,0.8,1.8,1.8,1.8c0.8,0,1.4-0.5,1.7-1.2h-0.2V17.1h5.7v18.3
		C254.8,39.1,250.9,42,247.2,42z"/>
	<polygon class="st5" points="276.2,41.9 270.3,41.9 266.6,28.4 262.8,41.9 256.9,41.9 263.8,17.1 269.3,17.1 	"/>
	<polygon class="st5" points="160.8,17.2 154.7,17.2 152.2,24 149.7,17.2 143.6,17.2 149.6,30.4 149.6,30.4 149.6,42 154.8,42 
		154.8,30.4 154.8,30.4 	"/>
	<polygon class="st5" points="290.4,17.2 284.2,17.2 281.8,24 279.3,17.2 273.1,17.2 279.2,30.4 279.2,30.4 279.2,42 284.3,42 
		284.3,30.4 284.3,30.4 	"/>
	<path class="st5" d="M73.2,17.2c-1.9,0-3.5,0.7-4.8,1.8c-1.3-1.1-3-1.8-4.8-1.8c-3.9,0-7,3-7.2,6.9h0v17.8h5.9V31.6v-6.9
		c0-1,0.8-1.9,1.9-1.9s1.9,0.8,1.9,1.9v6.6v10.6h5.9V31.6v-6.9c0-1,0.8-1.9,1.9-1.9c0.8,0,1.5,0.5,1.7,1.2h-0.2v17.8h5.9V24.1
		C81,20.3,77.1,17.2,73.2,17.2z"/>
	<path class="st5" d="M26.2,17.2c-1.9,0-3.5,0.7-4.8,1.8c-1.3-1.1-3-1.8-4.8-1.8c-3.9,0-7,3-7.2,6.9h0v17.8h5.9V31.6v-6.9
		c0-1,0.8-1.9,1.9-1.9s1.9,0.8,1.9,1.9v6.6v10.6h5.9V31.6v-6.9c0-1,0.8-1.9,1.9-1.9c0.8,0,1.5,0.5,1.7,1.2h-0.2v17.8h5.9V24.1
		C34,20.3,30,17.2,26.2,17.2z"/>
	<path class="st5" d="M41.1,25v1.7h13.6v5.4H41.1v1.7c0,1.3,1,2.3,2.3,2.3h11.2v5.7H42.8c-4.1,0-7.4-3.3-7.4-7.4v-10
		c0-4.1,3.3-7.4,7.4-7.4h11.9v5.6H43.4C42.1,22.6,41.1,23.7,41.1,25z"/>
	<path class="st5" d="M88.6,25v1.7h13.6v5.4H88.6v1.7c0,1.3,1,2.3,2.3,2.3h11.2v5.7H90.3c-4.1,0-7.4-3.3-7.4-7.4v-10
		c0-4.1,3.3-7.4,7.4-7.4h11.9v5.6H91C89.7,22.6,88.6,23.7,88.6,25z"/>
</g>
<g id="meme_text" class="st0">
	<path class="st6" d="M191.7,21.2v3.4h26.9v10.7h-26.9v3.4c0,2.6,2.1,4.6,4.6,4.6h22.2v11.4h-23.5c-8.1,0-14.6-6.5-14.6-14.6V20.1
		c0-8.1,6.5-14.6,14.6-14.6h23.5v11h-22.2C193.8,16.5,191.7,18.6,191.7,21.2z"/>
	<path class="st6" d="M99,21.2v3.4h26.9v10.7H99v3.4c0,2.6,2.1,4.6,4.6,4.6h22.2v11.4h-23.5c-8.1,0-14.6-6.5-14.6-14.6V20.1
		c0-8.1,6.5-14.6,14.6-14.6h23.5v11h-22.2C101.1,16.5,99,18.6,99,21.2z"/>
	<path class="st6" d="M69.4,5.5c-3.7,0-7.1,1.4-9.6,3.7c-2.6-2.3-5.9-3.7-9.6-3.7c-7.7,0-14,6.1-14.4,13.7h0v35.5h11.8V34.2V20.4
		c0-2,1.7-3.7,3.7-3.7c2,0,3.7,1.6,3.7,3.7v13.2v21.1h11.8V34.2V20.4c0-2,1.7-3.7,3.7-3.7c1.6,0,3,1,3.5,2.5h-0.3v35.5h11.8V19.2
		C85,11.5,77.1,5.5,69.4,5.5z"/>
	<path class="st6" d="M161.8,5.5c-3.7,0-7.1,1.4-9.6,3.7c-2.6-2.3-5.9-3.7-9.6-3.7c-7.7,0-14,6.1-14.4,13.7h0v35.5H140V34.2V20.4
		c0-2,1.7-3.7,3.7-3.7c2,0,3.7,1.6,3.7,3.7v13.2v21.1h11.8V34.2V20.4c0-2,1.7-3.7,3.7-3.7c1.6,0,3,1,3.5,2.5h-0.3v35.5h11.8V19.2
		C177.5,11.5,169.6,5.5,161.8,5.5z"/>
	<path class="st6" d="M253.1,29.2c-0.6-0.6-1.2-1.1-1.9-1.6c-2.4-1.7-5.4-2.7-8.6-2.7h-7.5c-2.1,0-3.1-1.8-3.1-3.9
		c0-2.1,1.7-3.7,3.7-3.7h15.6V5.5h-14.9c-4.1,0-7.8,1.7-10.6,4.4c-2.7,2.7-4.4,6.4-4.4,10.6c0,5,2.5,9.5,6.3,12.1
		c2.4,1.7,5.4,2.8,8.6,2.8h5.6l1.6,0.3c2.1,0,3.5,2.6,3.5,4.6s-1.7,3.7-3.7,3.7h-6.9h-8.6h-6.3v10.7h14.9v0h6.3
		c8.2,0,14.9-6.7,14.9-14.9C257.5,35.6,255.8,31.9,253.1,29.2z"/>
</g>
<g id="upload_text" class="st0">
	<path class="st7" d="M47.5,11v27.9c0,5.9-4.7,10.8-10.6,10.8h-8.2c-5.8,0-10.6-4.8-10.6-10.8V11h10.3v25.5c0,2.5,2,4.5,4.4,4.5
		c2.4,0,4.4-2,4.4-4.5V11H47.5z"/>
	<path class="st7" d="M124.3,11h-7.6c-5.9,0-10.8,4.8-10.8,10.8v17.1c0,5.9,4.8,10.8,10.8,10.8h7.6c5.9,0,10.8-4.8,10.8-10.8V21.7
		C135.1,15.8,130.2,11,124.3,11z M126.2,36.3c0,2.4-2,4.4-4.4,4.4h-3.5c-2.4,0-4.4-2-4.4-4.4V24.5c0-2.4,2-4.4,4.4-4.4h3.5
		c2.4,0,4.4,2,4.4,4.4V36.3z"/>
	<polygon class="st7" points="164.5,49.5 155.4,49.5 149.6,28.5 143.7,49.5 134.6,49.5 145.3,11 153.8,11 	"/>
	<rect x="242" y="10.1" class="st7" width="8.7" height="39.4"/>
	<path class="st7" d="M68.1,11H50.9v0h0v38.5h8.6V34.7h8.6c3.3,0,6.3-1.3,8.4-3.5c2.1-2.2,3.5-5.1,3.5-8.4C80,16.3,74.7,11,68.1,11z
		 M70,25.4c-0.7,0.6-1.5,1-2.5,1h-7.6v-7.1h7.6c2,0,3.6,1.6,3.6,3.6C71,23.8,70.6,24.7,70,25.4z"/>
	<path class="st7" d="M227.8,11h-17.2v0h0v38.5h8.6V34.7h8.6c3.3,0,6.3-1.3,8.4-3.5c2.1-2.2,3.5-5.1,3.5-8.4
		C239.6,16.3,234.3,11,227.8,11z M229.6,25.4c-0.7,0.6-1.5,1-2.5,1h-7.6v-7.1h7.6c2,0,3.6,1.6,3.6,3.6
		C230.7,23.8,230.3,24.7,229.6,25.4z"/>
	<path class="st7" d="M91.2,36.6V11h-8.8v29.1c0,5,3.9,9.1,8.8,9.4c0.2,0,0.4,0,0.6,0h10.4v-9.4h-7.5C92.7,40.1,91.2,38.5,91.2,36.6
		z"/>
	<path class="st7" d="M282.3,22.4h-8.2c-0.3-1.3-1.6-2.3-3-2.3h-5.9c-1.7,0-3.1,1.4-3.1,3.1v14.4c0,1.7,1.4,3.1,3.1,3.1h5.9
		c1.6,0,3-1.3,3.1-2.9h8.1v1.6c0,5.6-4.5,10.1-10.1,10.1h-8.6c-5.6,0-10.1-4.5-10.1-10.1V21.1c0-5.6,4.5-10.1,10.1-10.1h8.6
		c5.6,0,10.1,4.5,10.1,10.1V22.4z"/>
	<path class="st7" d="M183.8,11h-8H167v38.5v0.1h16.8c7.1,0,12.9-5.8,12.9-12.9V23.8C196.6,16.7,190.9,11,183.8,11z M187.8,33.5
		c0,4-2.3,7.2-5.2,7.2h-6.8v-0.1V19.1h3.5h3.2c2.9,0,5.2,3.2,5.2,7.2V33.5z"/>
</g>
</svg>
