<svg xmlns="http://www.w3.org/2000/svg" viewBox="0 0 256.99 225.84"><defs><style>.cls-1{fill:#40b7fc;}.cls-2{fill:none;stroke:#000;stroke-miterlimit:10;}.cls-3{fill:#fedd64;}</style></defs><title>logo-transparent</title><g id="text"><path class="cls-1" d="M42.4,208.89a8.23,8.23,0,0,0-8.19-7.53H28.07a8.21,8.21,0,0,0-8.19,7.53h0v21.36h7V210.42a1.62,1.62,0,0,1,1.62-1.62h5.37a1.62,1.62,0,0,1,1.62,1.62v19.83h7V208.89Z" transform="translate(-19.85 -41.55)"/><path class="cls-1" d="M159.69,208.89a8.23,8.23,0,0,0-8.19-7.53h-6.14a8.21,8.21,0,0,0-8.19,7.53h0v21.36h7V210.42a1.62,1.62,0,0,1,1.62-1.62h5.37a1.62,1.62,0,0,1,1.62,1.62v19.83h7V208.89Z" transform="translate(-19.85 -41.55)"/><path class="cls-1" d="M59.3,212.48H57.06v6.78H59.3V221a2.77,2.77,0,0,1-2.77,2.77H53.4A2.77,2.77,0,0,1,50.63,221V211a2.77,2.77,0,0,1,2.77-2.77h3.13c1.53,0,2.77,1.89,2.77,1.89h7a9.29,9.29,0,0,0-9.27-8.8H53.36a9.29,9.29,0,0,0-9.29,9.29V221a9.29,9.29,0,0,0,9.29,9.29H57A9.28,9.28,0,0,0,66.26,221v-8.48Z" transform="translate(-19.85 -41.55)"/><path class="cls-2" d="M66.26,210.16v.49c0-.16,0-.33,0-.49Z" transform="translate(-19.85 -41.55)"/><path class="cls-1" d="M90.08,201.36v21.76A7.13,7.13,0,0,1,83,230.25H74.82a7.13,7.13,0,0,1-7.13-7.13V201.36h6.68v19.52A3.07,3.07,0,0,0,77.45,224h3a3.06,3.06,0,0,0,3.07-3.07V201.36Z" transform="translate(-19.85 -41.55)"/><polygon class="cls-1" points="91.95 159.81 84.82 159.81 81.93 167.7 79.04 159.81 71.9 159.81 78.92 175.15 78.92 175.15 78.92 188.7 84.94 188.7 84.94 175.16 84.94 175.15 91.95 159.81"/><path class="cls-1" d="M261,210.57v2h15.8v6.27H261v2a2.73,2.73,0,0,0,2.73,2.73h13.07v6.68H263a8.6,8.6,0,0,1-8.61-8.61V210a8.6,8.6,0,0,1,8.61-8.61h13.83v6.48H263.77A2.73,2.73,0,0,0,261,210.57Z" transform="translate(-19.85 -41.55)"/><path class="cls-1" d="M206.53,210.57v2h15.8v6.27h-15.8v2a2.73,2.73,0,0,0,2.73,2.73h13.07v6.68H208.5a8.6,8.6,0,0,1-8.61-8.61V210a8.6,8.6,0,0,1,8.61-8.61h13.83v6.48H209.26A2.73,2.73,0,0,0,206.53,210.57Z" transform="translate(-19.85 -41.55)"/><path class="cls-1" d="M120,210.57v2h15.8v6.27H120v2a2.73,2.73,0,0,0,2.73,2.73h13.07v6.68H122a8.6,8.6,0,0,1-8.61-8.61V210a8.6,8.6,0,0,1,8.61-8.61h13.83v6.48H122.74A2.73,2.73,0,0,0,120,210.57Z" transform="translate(-19.85 -41.55)"/><path class="cls-1" d="M189.12,201.36a8.46,8.46,0,0,0-5.65,2.16,8.49,8.49,0,0,0-14.14,5.88h0v20.85h6.94V210.12a2.18,2.18,0,0,1,4.36,0v20.13h6.94V210.12a2.18,2.18,0,0,1,4.23-.72h-.19v20.85h6.94V209.4C198.3,204.92,193.66,201.36,189.12,201.36Z" transform="translate(-19.85 -41.55)"/><path class="cls-1" d="M243.47,201.36a8.46,8.46,0,0,0-5.65,2.16,8.49,8.49,0,0,0-14.14,5.88h0v20.85h6.94V210.12a2.18,2.18,0,0,1,4.36,0v20.13h6.94V210.12a2.18,2.18,0,0,1,4.23-.72h-.19v20.85h6.94V209.4C252.65,204.92,248,201.36,243.47,201.36Z" transform="translate(-19.85 -41.55)"/><rect class="cls-3" x="95.83" y="204.67" width="5.37" height="21.17"/><polygon class="cls-3" points="116.99 204.67 102.18 204.67 102.18 209.51 106.95 209.51 106.95 225.84 112.09 225.84 112.09 209.51 116.99 209.51 116.99 204.67"/><path class="cls-3" d="M169,246.21h-4.18a5.9,5.9,0,0,0-5.9,5.9v9.38a5.9,5.9,0,0,0,5.9,5.9H169a5.9,5.9,0,0,0,5.9-5.9v-9.38A5.9,5.9,0,0,0,169,246.21Zm1,13.89a2.4,2.4,0,0,1-2.4,2.39h-1.91a2.4,2.4,0,0,1-2.4-2.39v-6.49a2.41,2.41,0,0,1,2.4-2.4h1.91a2.41,2.41,0,0,1,2.4,2.4Z" transform="translate(-19.85 -41.55)"/><path class="cls-3" d="M192.42,246.21v15.28a5.9,5.9,0,0,1-5.9,5.9h-4.61a5.9,5.9,0,0,1-5.9-5.9V246.21h5.74v14a2.47,2.47,0,0,0,4.93,0v-14Z" transform="translate(-19.85 -41.55)"/><path class="cls-3" d="M209.86,252.44a6.23,6.23,0,0,0-6.23-6.23h-9.88v21.18h4.79v-8.11h3.28a3.8,3.8,0,0,1,2.79,3.67v4.44h5.25v-6.68a5.92,5.92,0,0,0-1.35-3.79,6.17,6.17,0,0,0,1.35-3.87Zm-11.32,2.27v-3.93h3.72a2,2,0,0,1,2,2,2,2,0,0,1-2,2Z" transform="translate(-19.85 -41.55)"/><path class="cls-3" d="M231.06,267.39a5.91,5.91,0,0,1-3.95-1.51,5.93,5.93,0,0,1-9.88-4.11h0V246.21h4.85v15.06a1.52,1.52,0,0,0,3,0V254.4H230v6.87a1.52,1.52,0,0,0,3,.51h-.13V246.21h4.85v15.56C237.48,264.9,234.23,267.39,231.06,267.39Z" transform="translate(-19.85 -41.55)"/><polygon class="cls-3" points="235.81 225.73 230.81 225.73 227.62 214.27 224.42 225.73 219.43 225.73 225.3 204.66 229.94 204.66 235.81 225.73"/><polygon class="cls-3" points="137.95 204.81 132.76 204.81 130.66 210.56 128.55 204.81 123.36 204.81 128.47 215.98 128.47 215.98 128.47 225.84 132.84 225.84 132.84 215.99 132.85 215.98 137.95 204.81"/><polygon class="cls-3" points="247.8 204.81 242.61 204.81 240.51 210.56 238.4 204.81 233.21 204.81 238.32 215.98 238.32 215.98 238.32 225.84 242.7 225.84 242.7 215.99 242.7 215.98 247.8 204.81"/><path class="cls-3" d="M83.5,246.36a6.12,6.12,0,0,0-4.09,1.56,6.14,6.14,0,0,0-10.22,4.25h0v15.08h5V252.69a1.58,1.58,0,0,1,3.15,0v14.56h5V252.69a1.57,1.57,0,0,1,3.06-.52h-.13v15.08h5V252.17C90.14,248.93,86.78,246.36,83.5,246.36Z" transform="translate(-19.85 -41.55)"/><path class="cls-3" d="M43.61,246.36a6.12,6.12,0,0,0-4.09,1.56,6.14,6.14,0,0,0-10.22,4.25h0v15.08h5V252.69a1.58,1.58,0,0,1,3.15,0v14.56h5V252.69a1.57,1.57,0,0,1,3.06-.52H45.4v15.08h5V252.17C50.25,248.93,46.89,246.36,43.61,246.36Z" transform="translate(-19.85 -41.55)"/><path class="cls-3" d="M56.24,252.92v1.46H67.74v4.57H56.24v1.46a2,2,0,0,0,2,2h9.52v4.86H57.67A6.27,6.27,0,0,1,51.4,261v-8.5a6.27,6.27,0,0,1,6.27-6.27H67.74v4.72H58.22A2,2,0,0,0,56.24,252.92Z" transform="translate(-19.85 -41.55)"/><path class="cls-3" d="M96.59,252.92v1.46h11.51v4.57H96.59v1.46a2,2,0,0,0,2,2h9.52v4.86H98A6.27,6.27,0,0,1,91.75,261v-8.5A6.27,6.27,0,0,1,98,246.21h10.07v4.72H98.57A2,2,0,0,0,96.59,252.92Z" transform="translate(-19.85 -41.55)"/></g><g id="icon"><polyline class="cls-3" points="148.01 1 154.21 0 165.99 32.11"/><polygon class="cls-3" points="103.74 142.65 109.94 141.65 112.75 111.28 103.74 142.65"/><path class="cls-3" d="M185,70.45l5.9-.62-23-27.28L152.92,73.81l5.79-.61L169,139.14h-.07c-2.85.35-7-15.87-9-24.35l-1.53-4.86L155.6,101c-9.15-38.85-36.2-32.85-36.2-32.85S98.81,70,97.36,89.31c2.52,17.29,7.36,54.14,9,66.27l-5.9.62,23.18,28,14.8-32-5.79.61L122.33,86.9h.06a1.21,1.21,0,0,1,.95.42c1.75,5.45,5.6,17.19,8.55,26.17.31.93.6,1.83.89,2.68,1.64,5,2.85,8.69,3,9a.08.08,0,0,1,0,0c9.2,38.63,36.15,32.66,36.15,32.66s20.6-1.93,22-21.18C191.43,119.44,186.59,82.59,185,70.45Z" transform="translate(-19.85 -41.55)"/><path class="cls-1" d="M191.2,69.45l5.9-.62-23-27.28L159.12,72.81l5.79-.61,10.28,65.94h-.07c-2.85.35-7-15.87-9-24.35l-1.53-4.86L161.8,100c-9.15-38.85-36.2-32.85-36.2-32.85S105,69,103.56,88.31c2.52,17.29,7.36,54.14,9,66.27l-5.9.62,23.18,28,14.8-32-5.79.61L128.53,85.9h.06a1.21,1.21,0,0,1,.95.42c1.75,5.45,5.6,17.19,8.55,26.17.31.93.6,1.83.89,2.68,1.64,5,2.85,8.69,3,9a.08.08,0,0,1,0,0c9.2,38.63,36.15,32.66,36.15,32.66s20.6-1.93,22-21.18C197.63,118.44,192.79,81.59,191.2,69.45Z" transform="translate(-19.85 -41.55)"/><path class="cls-1" d="M123.59,185.2" transform="translate(-19.85 -41.55)"/><path class="cls-1" d="M123.59,185.2" transform="translate(-19.85 -41.55)"/><path class="cls-3" d="M123.59,185.2" transform="translate(-19.85 -41.55)"/></g></svg>