<?xml version="1.0" encoding="utf-8"?>
<!-- Generator: Adobe Illustrator 21.0.0, SVG Export Plug-In . SVG Version: 6.00 Build 0)  -->
<svg version="1.1" xmlns="http://www.w3.org/2000/svg" xmlns:xlink="http://www.w3.org/1999/xlink" x="0px" y="0px"
	 viewBox="0 0 300 79.7" style="enable-background:new 0 0 300 79.7;" xml:space="preserve">
<style type="text/css">
	.st0{display:none;}
	.st1{display:inline;fill:#0B263D;}
	.st2{display:inline;fill:#40B7FC;}
	.st3{display:inline;fill:none;stroke:#000000;stroke-miterlimit:10;}
	.st4{display:inline;fill:#FEDD64;}
	.st5{fill:#FCDD64;}
	.st6{display:inline;fill:#41B7FC;}
</style>
<g id="Layer_4" class="st0">
	<rect y="-97.6" class="st1" width="300" height="300"/>
</g>
<g id="text" class="st0">
	<path class="st2" d="M42.4,111.3c-0.2-2-1-3.8-2.4-5.1c-1.5-1.5-3.5-2.4-5.8-2.4h-6.1c-4.3,0-7.8,3.3-8.2,7.5h0v21.4h7v-14.7v-5.1
		c0-0.9,0.7-1.6,1.6-1.6h5.4c0.9,0,1.6,0.7,1.6,1.6v5.1v14.7h7L42.4,111.3L42.4,111.3z"/>
	<path class="st2" d="M159.7,111.3c-0.2-2-1-3.8-2.4-5.1c-1.5-1.5-3.5-2.4-5.8-2.4h-6.1c-4.3,0-7.8,3.3-8.2,7.5h0v21.4h7v-14.7v-5.1
		c0-0.9,0.7-1.6,1.6-1.6h5.4c0.9,0,1.6,0.7,1.6,1.6v5.1v14.7h7L159.7,111.3L159.7,111.3z"/>
	<path class="st2" d="M59.3,114.9h-2.2v6.8h2.2v1.8c0,1.5-1.2,2.8-2.8,2.8h-3.1c-1.5,0-2.8-1.2-2.8-2.8v-10c0-1.5,1.2-2.8,2.8-2.8
		h3.1c1.5,0,2.8,1.9,2.8,1.9h7c-0.3-4.9-4.3-8.8-9.3-8.8h-3.6c-5.1,0-9.3,4.2-9.3,9.3v10.3c0,5.1,4.2,9.3,9.3,9.3H57
		c5.1,0,9.3-4.2,9.3-9.3v-1.7v-6.8H59.3z"/>
	<path class="st3" d="M66.3,112.6v0.5C66.3,112.9,66.3,112.7,66.3,112.6L66.3,112.6z"/>
	<path class="st2" d="M90.1,103.8v21.8c0,3.9-3.2,7.1-7.1,7.1h-8.1c-3.9,0-7.1-3.2-7.1-7.1v-21.8h6.7v19.5c0,1.7,1.4,3.1,3.1,3.1h3
		c1.7,0,3.1-1.4,3.1-3.1v-19.5H90.1z"/>
	<polygon class="st2" points="111.8,103.8 104.7,103.8 101.8,111.7 98.9,103.8 91.8,103.8 98.8,119.1 98.8,119.1 98.8,132.7 
		104.8,132.7 104.8,119.1 104.8,119.1 	"/>
	<path class="st2" d="M261,113v2h15.8v6.3H261v2c0,1.5,1.2,2.7,2.7,2.7h13.1v6.7H263c-4.8,0-8.6-3.8-8.6-8.6v-11.7
		c0-4.8,3.8-8.6,8.6-8.6h13.8v6.5h-13.1C262.3,110.2,261,111.5,261,113z"/>
	<path class="st2" d="M206.5,113v2h15.8v6.3h-15.8v2c0,1.5,1.2,2.7,2.7,2.7h13.1v6.7h-13.8c-4.8,0-8.6-3.8-8.6-8.6v-11.7
		c0-4.8,3.8-8.6,8.6-8.6h13.8v6.5h-13.1C207.7,110.2,206.5,111.5,206.5,113z"/>
	<path class="st2" d="M120,113v2h15.8v6.3H120v2c0,1.5,1.2,2.7,2.7,2.7h13.1v6.7H122c-4.8,0-8.6-3.8-8.6-8.6v-11.7
		c0-4.8,3.8-8.6,8.6-8.6h13.8v6.5h-13.1C121.2,110.2,120,111.5,120,113z"/>
	<path class="st2" d="M189.1,103.8c-2.2,0-4.1,0.8-5.6,2.2c-1.5-1.3-3.5-2.2-5.7-2.2c-4.5,0-8.2,3.6-8.5,8h0v20.8h6.9v-12v-8.1
		c0-1.2,1-2.2,2.2-2.2s2.2,1,2.2,2.2v7.8v12.4h6.9v-12v-8.1c0-1.2,1-2.2,2.2-2.2c0.9,0,1.7,0.6,2,1.4h-0.2v20.9h6.9v-20.9
		C198.3,107.3,193.7,103.8,189.1,103.8z"/>
	<path class="st2" d="M243.5,103.8c-2.2,0-4.1,0.8-5.6,2.2c-1.5-1.3-3.5-2.2-5.7-2.2c-4.5,0-8.2,3.6-8.5,8h0v20.8h6.9v-12v-8.1
		c0-1.2,1-2.2,2.2-2.2s2.2,1,2.2,2.2v7.8v12.4h6.9v-12v-8.1c0-1.2,1-2.2,2.2-2.2c0.9,0,1.7,0.6,2,1.4h-0.2v20.9h6.9v-20.9
		C252.7,107.3,248,103.8,243.5,103.8z"/>
	<rect x="115.7" y="148.6" class="st4" width="5.4" height="21.2"/>
	<polygon class="st4" points="136.8,148.6 122,148.6 122,153.5 126.8,153.5 126.8,169.8 131.9,169.8 131.9,153.5 136.8,153.5 	"/>
	<path class="st4" d="M169,148.6h-4.2c-3.3,0-5.9,2.6-5.9,5.9v9.4c0,3.3,2.6,5.9,5.9,5.9h4.2c3.3,0,5.9-2.6,5.9-5.9v-9.4
		C174.9,151.3,172.3,148.6,169,148.6z M170,162.5c0,1.3-1.1,2.4-2.4,2.4h-1.9c-1.3,0-2.4-1.1-2.4-2.4V156c0-1.3,1.1-2.4,2.4-2.4h1.9
		c1.3,0,2.4,1.1,2.4,2.4V162.5z"/>
	<path class="st4" d="M192.4,148.6v15.3c0,3.3-2.6,5.9-5.9,5.9h-4.6c-3.3,0-5.9-2.6-5.9-5.9v-15.3h5.7v14c0,1.4,1.1,2.5,2.5,2.5
		c1.4,0,2.5-1.1,2.5-2.5v-14H192.4z"/>
	<path class="st4" d="M209.9,154.8c0-3.4-2.8-6.2-6.2-6.2h-5.1h-4.8v8.5v4.6v8.1h4.8v-8.1h3.3c1.6,0.4,2.8,1.9,2.8,3.7v4.4h5.2v-6.7
		c0-1.4-0.5-2.8-1.3-3.8c0.8-1.1,1.3-2.4,1.3-3.9V154.8z M198.5,157.1v-3.9h3.7c0.5,0,1,0.2,1.4,0.6c0.4,0.4,0.6,0.8,0.6,1.4
		c0,1.1-0.9,2-2,2H198.5z"/>
	<path class="st4" d="M231.1,169.8c-1.5,0-2.9-0.6-3.9-1.5c-1.1,0.9-2.4,1.5-3.9,1.5c-3.2,0-5.8-2.5-5.9-5.6h0v-15.6h4.8v9.4v5.7
		c0,0.8,0.7,1.5,1.5,1.5s1.5-0.7,1.5-1.5v-5.4v-1.5h4.8v1.2v5.7c0,0.8,0.7,1.5,1.5,1.5c0.7,0,1.2-0.4,1.4-1h-0.1v-15.6h4.9v15.6
		C237.5,167.3,234.2,169.8,231.1,169.8z"/>
	<polygon class="st4" points="255.7,169.7 250.7,169.7 247.5,158.2 244.3,169.7 239.3,169.7 245.2,148.6 249.8,148.6 	"/>
	<polygon class="st4" points="157.8,148.8 152.6,148.8 150.5,154.5 148.4,148.8 143.2,148.8 148.3,159.9 148.3,159.9 148.3,169.8 
		152.7,169.8 152.7,159.9 152.7,159.9 	"/>
	<polygon class="st4" points="267.7,148.8 262.5,148.8 260.4,154.5 258.3,148.8 253.1,148.8 258.2,159.9 258.2,159.9 258.2,169.8 
		262.5,169.8 262.5,159.9 262.5,159.9 	"/>
	<path class="st4" d="M83.5,148.8c-1.6,0-3,0.6-4.1,1.6c-1.1-1-2.5-1.6-4.1-1.6c-3.3,0-6,2.6-6.1,5.8h0v15.1h5V161v-5.8
		c0-0.9,0.7-1.6,1.6-1.6s1.6,0.7,1.6,1.6v5.6v9h5V161v-5.8c0-0.9,0.7-1.6,1.6-1.6c0.7,0,1.3,0.4,1.5,1h-0.1v15.1h5v-15.1
		C90.1,151.3,86.8,148.8,83.5,148.8z"/>
	<path class="st4" d="M43.6,148.8c-1.6,0-3,0.6-4.1,1.6c-1.1-1-2.5-1.6-4.1-1.6c-3.3,0-6,2.6-6.1,5.8h0v15.1h5V161v-5.8
		c0-0.9,0.7-1.6,1.6-1.6s1.6,0.7,1.6,1.6v5.6v9h5V161v-5.8c0-0.9,0.7-1.6,1.6-1.6c0.7,0,1.3,0.4,1.5,1h-0.1v15.1h5v-15.1
		C50.2,151.3,46.9,148.8,43.6,148.8z"/>
	<path class="st4" d="M56.2,155.3v1.5h11.5v4.6H56.2v1.5c0,1.1,0.9,2,2,2h9.5v4.9H57.7c-3.5,0-6.3-2.8-6.3-6.3v-8.5
		c0-3.5,2.8-6.3,6.3-6.3h10.1v4.7h-9.5C57.1,153.3,56.2,154.2,56.2,155.3z"/>
	<path class="st4" d="M96.6,155.3v1.5h11.5v4.6H96.6v1.5c0,1.1,0.9,2,2,2h9.5v4.9H98c-3.5,0-6.3-2.8-6.3-6.3v-8.5
		c0-3.5,2.8-6.3,6.3-6.3h10.1v4.7h-9.5C97.5,153.3,96.6,154.2,96.6,155.3z"/>
</g>
<g id="icon" class="st0">
	<polyline class="st4" points="167.9,-55 174.1,-56 185.8,-23.9 	"/>
	<polygon class="st4" points="123.6,86.6 129.8,85.6 132.6,55.2 	"/>
	<path class="st4" d="M185-27.1l5.9-0.6l-23-27.3l-14.9,31.3l5.8-0.6L169,41.5c0,0,0,0-0.1,0c-2.8,0.3-7-15.9-9-24.3l-1.5-4.9
		l-2.8-8.9c-9.2-38.8-36.2-32.9-36.2-32.9s-20.6,1.9-22,21.2c2.5,17.3,7.4,54.1,9,66.3l-5.9,0.6l23.2,28l14.8-32l-5.8,0.6
		l-10.3-65.9h0.1c0.3,0,0.6,0.1,0.9,0.4c1.8,5.5,5.6,17.2,8.6,26.2c0.3,0.9,0.6,1.8,0.9,2.7c1.6,5,2.9,8.7,3,9c0,0,0,0,0,0
		c9.2,38.6,36.1,32.7,36.1,32.7s20.6-1.9,22-21.2C191.4,21.8,186.6-15,185-27.1z"/>
	<path class="st2" d="M191.2-28.1l5.9-0.6l-23-27.3l-14.9,31.3l5.8-0.6l10.3,65.9c0,0,0,0-0.1,0c-2.8,0.3-7-15.9-9-24.3l-1.5-4.9
		l-2.8-8.9c-9.2-38.8-36.2-32.9-36.2-32.9s-20.6,1.9-22,21.2c2.5,17.3,7.4,54.1,9,66.3l-5.9,0.6l23.2,28l14.8-32l-5.8,0.6
		l-10.3-65.9h0.1c0.3,0,0.6,0.1,0.9,0.4c1.8,5.5,5.6,17.2,8.6,26.2c0.3,0.9,0.6,1.8,0.9,2.7c1.6,5,2.9,8.7,3,9c0,0,0,0,0,0
		c9.2,38.6,36.1,32.7,36.1,32.7s20.6-1.9,22-21.2C197.6,20.8,192.8-16,191.2-28.1z"/>
	<path class="st2" d="M123.6,87.6"/>
	<path class="st2" d="M123.6,87.6"/>
	<path class="st4" d="M123.6,87.6"/>
</g>
<g id="meme_text">
	<path class="st5" d="M191.7,31.7v3.4h26.9v10.7h-26.9v3.4c0,2.6,2.1,4.6,4.6,4.6h22.2v11.4h-23.5c-8.1,0-14.6-6.5-14.6-14.6V30.7
		c0-8.1,6.5-14.6,14.6-14.6h23.5v11h-22.2C193.8,27.1,191.7,29.2,191.7,31.7z"/>
	<path class="st5" d="M99,31.7v3.4h26.9v10.7H99v3.4c0,2.6,2.1,4.6,4.6,4.6h22.2v11.4h-23.5c-8.1,0-14.6-6.5-14.6-14.6V30.7
		c0-8.1,6.5-14.6,14.6-14.6h23.5v11h-22.2C101.1,27.1,99,29.2,99,31.7z"/>
	<path class="st5" d="M69.4,16.1c-3.7,0-7.1,1.4-9.6,3.7c-2.6-2.3-5.9-3.7-9.6-3.7c-7.7,0-14,6.1-14.4,13.7h0v35.5h11.8V44.7V31
		c0-2,1.7-3.7,3.7-3.7c2,0,3.7,1.6,3.7,3.7v13.2v21.1h11.8V44.7V31c0-2,1.7-3.7,3.7-3.7c1.6,0,3,1,3.5,2.5h-0.3v35.5h11.8V29.7
		C85,22.1,77.1,16.1,69.4,16.1z"/>
	<path class="st5" d="M161.8,16.1c-3.7,0-7.1,1.4-9.6,3.7c-2.6-2.3-5.9-3.7-9.6-3.7c-7.7,0-14,6.1-14.4,13.7h0v35.5H140V44.7V31
		c0-2,1.7-3.7,3.7-3.7c2,0,3.7,1.6,3.7,3.7v13.2v21.1h11.8V44.7V31c0-2,1.7-3.7,3.7-3.7c1.6,0,3,1,3.5,2.5h-0.3v35.5h11.8V29.7
		C177.5,22.1,169.6,16.1,161.8,16.1z"/>
	<path class="st5" d="M253.1,39.7c-0.6-0.6-1.2-1.1-1.9-1.6c-2.4-1.7-5.4-2.7-8.6-2.7h-7.5c-2.1,0-3.1-1.8-3.1-3.9
		c0-2.1,1.7-3.7,3.7-3.7h15.6V16.1h-14.9c-4.1,0-7.8,1.7-10.6,4.4c-2.7,2.7-4.4,6.4-4.4,10.6c0,5,2.5,9.5,6.3,12.1
		c2.4,1.7,5.4,2.8,8.6,2.8h5.6l1.6,0.3c2.1,0,3.5,2.6,3.5,4.6s-1.7,3.7-3.7,3.7h-6.9h-8.6h-6.3v10.7h14.9v0h6.3
		c8.2,0,14.9-6.7,14.9-14.9C257.5,46.2,255.8,42.4,253.1,39.7z"/>
</g>
<g id="upload_text" class="st0">
	<path class="st6" d="M47.5,21.5v27.9c0,5.9-4.7,10.8-10.6,10.8h-8.2c-5.8,0-10.6-4.8-10.6-10.8V21.5h10.3V47c0,2.5,2,4.5,4.4,4.5
		c2.4,0,4.4-2,4.4-4.5V21.5H47.5z"/>
	<path class="st6" d="M124.3,21.5h-7.6c-5.9,0-10.8,4.8-10.8,10.8v17.1c0,5.9,4.8,10.8,10.8,10.8h7.6c5.9,0,10.8-4.8,10.8-10.8V32.3
		C135.1,26.3,130.2,21.5,124.3,21.5z M126.2,46.8c0,2.4-2,4.4-4.4,4.4h-3.5c-2.4,0-4.4-2-4.4-4.4V35c0-2.4,2-4.4,4.4-4.4h3.5
		c2.4,0,4.4,2,4.4,4.4V46.8z"/>
	<polygon class="st6" points="164.5,60 155.4,60 149.6,39.1 143.7,60 134.6,60 145.3,21.5 153.8,21.5 	"/>
	<rect x="242" y="20.7" class="st6" width="8.7" height="39.4"/>
	<path class="st6" d="M68.1,21.5H50.9v0h0V60h8.6V45.3h8.6c3.3,0,6.3-1.3,8.4-3.5c2.1-2.2,3.5-5.1,3.5-8.4
		C80,26.8,74.7,21.5,68.1,21.5z M70,35.9c-0.7,0.6-1.5,1-2.5,1h-7.6v-7.1h7.6c2,0,3.6,1.6,3.6,3.6C71,34.4,70.6,35.3,70,35.9z"/>
	<path class="st6" d="M227.8,21.5h-17.2v0h0V60h8.6V45.3h8.6c3.3,0,6.3-1.3,8.4-3.5c2.1-2.2,3.5-5.1,3.5-8.4
		C239.6,26.8,234.3,21.5,227.8,21.5z M229.6,35.9c-0.7,0.6-1.5,1-2.5,1h-7.6v-7.1h7.6c2,0,3.6,1.6,3.6,3.6
		C230.7,34.4,230.3,35.3,229.6,35.9z"/>
	<path class="st6" d="M91.2,47.1V21.5h-8.8v29.1c0,5,3.9,9.1,8.8,9.4c0.2,0,0.4,0,0.6,0h10.4v-9.4h-7.5
		C92.7,50.6,91.2,49.1,91.2,47.1z"/>
	<path class="st6" d="M282.3,32.9h-8.2c-0.3-1.3-1.6-2.3-3-2.3h-5.9c-1.7,0-3.1,1.4-3.1,3.1v14.4c0,1.7,1.4,3.1,3.1,3.1h5.9
		c1.6,0,3-1.3,3.1-2.9h8.1v1.6c0,5.6-4.5,10.1-10.1,10.1h-8.6c-5.6,0-10.1-4.5-10.1-10.1V31.6c0-5.6,4.5-10.1,10.1-10.1h8.6
		c5.6,0,10.1,4.5,10.1,10.1V32.9z"/>
	<path class="st6" d="M183.8,21.5h-8H167V60v0.1h16.8c7.1,0,12.9-5.8,12.9-12.9V34.4C196.6,27.3,190.9,21.5,183.8,21.5z M187.8,44.1
		c0,4-2.3,7.2-5.2,7.2h-6.8v-0.1V29.6h3.5h3.2c2.9,0,5.2,3.2,5.2,7.2V44.1z"/>
</g>
</svg>
